<svg width="100" height="100" viewBox="0 0 100 100" fill="none" xmlns="http://www.w3.org/2000/svg">
<g clip-path="url(#clip0_166_3)">
<rect width="100" height="100" rx="30" fill="#1E1E1E"/>
<path d="M49.2229 60.5777V58.7211C47.8549 58.9817 47.0731 59.1446 46.8777 59.2097C46.6823 59.2097 46.552 59.1771 46.4869 59.112C46.0309 59.112 45.7051 58.7211 45.5097 57.9394C45.3794 57.1577 45.3143 55.3663 45.3143 52.5651C45.3143 50.22 45.9006 48.4937 47.0731 47.3863C48.2457 46.2137 50.428 45.432 53.62 45.0411C57.3331 44.5851 59.9714 44.292 61.5349 44.1617C63.1634 43.9663 64.4337 43.8686 65.3457 43.8686C67.1697 43.8686 68.4726 44.4549 69.2543 45.6274C70.036 46.7349 70.4269 49.2103 70.4269 53.0537C70.4269 54.7474 69.9709 55.9851 69.0589 56.7669C68.212 57.5486 66.5183 58.1023 63.9777 58.428C64.6943 62.5971 62.0234 67.5154 55.9651 73.1829C49.9069 78.8503 44.5651 81.684 39.94 81.684C34.9891 81.684 30.7223 79.9251 27.1394 76.4074C23.6217 72.8246 21.8629 68.4274 21.8629 63.216C21.8629 58.7863 23.0029 53.4771 25.2829 47.2886C27.628 41.0349 30.8526 35.3349 34.9566 30.1886C39.3211 24.7166 44.1417 20.4171 49.4183 17.2903C54.6949 14.1634 59.5154 12.6 63.88 12.6C67.2674 12.6651 70.1012 13.7726 72.3812 15.9223C74.6612 18.072 75.8012 20.808 75.8012 24.1303C75.8012 27.9737 74.7263 31.2309 72.5766 33.9017C70.4269 36.5726 68.1469 37.908 65.7366 37.908C64.3034 37.9731 63.0983 37.5171 62.1212 36.54C61.144 35.4977 60.6554 34.1949 60.6554 32.6314C60.6554 32.2406 60.688 31.7846 60.7532 31.2634C60.8834 30.7423 61.0789 30.0583 61.3394 29.2114C61.7954 27.8434 62.0234 27.0943 62.0234 26.964C62.0886 26.7686 62.1212 26.5731 62.1212 26.3777C62.056 25.9217 61.9257 25.5634 61.7303 25.3028C61.5349 25.0423 61.2417 24.912 60.8509 24.912C60.3949 24.912 59.776 25.14 58.9943 25.596C58.2126 26.052 57.3331 26.6709 56.356 27.4526C52.0566 30.9051 47.7571 36.3771 43.4577 43.8686C39.2234 51.36 37.1063 57.744 37.1063 63.0206C37.0411 64.5189 37.3017 65.6589 37.888 66.4406C38.4743 67.1571 39.4189 67.5154 40.7217 67.5154C41.5034 67.5154 42.22 67.32 42.8714 66.9291C43.588 66.5383 45.7051 64.4211 49.2229 60.5777Z" fill="white"/>
</g>
<defs>
<clipPath id="clip0_166_3">
<rect width="100" height="100" rx="30" fill="white"/>
</clipPath>
</defs>
</svg>
